<svg xmlns="http://www.w3.org/2000/svg" version="1.0" preserveAspectRatio="xMidYMid meet" viewBox="118.37 77 230.58 119.33">

<g transform="translate(0.000000,285.000000) scale(0.100000,-0.100000)" fill="#000000" stroke="none">
<path d="M2343 2059 c23 -18 27 -27 27 -74 0 -34 -5 -57 -15 -65 -22 -18 -19 -51 5 -57 11 -3 20 -11 20 -19 0 -24 37 -36 54 -18 9 8 16 20 16 25 0 18 32 9 37 -10 10 -37 63 -33 63 5 0 8 7 14 15 14 8 0 15 5 15 10 0 6 -43 10 -110 10 -67 0 -110 4 -110 10 0 6 40 10 99 10 92 0 132 10 96 23 -12 5 -11 14 5 63 11 31 20 61 20 65 0 5 -44 8 -98 7 -57 0 -107 4 -119 11 -36 19 -50 12 -20 -10z m207 -33 c0 -7 -7 -33 -16 -59 l-16 -47 -64 0 c-50 0 -64 3 -64 15 0 11 12 15 50 15 28 0 50 5 50 10 0 6 -22 10 -50 10 -27 0 -50 5 -50 10 0 6 10 10 23 10 12 0 29 5 37 10 11 7 5 10 -22 10 -24 0 -38 5 -38 13 0 9 23 13 80 14 58 1 80 -2 80 -11z m-130 -176 c0 -5 -5 -10 -11 -10 -5 0 -7 5 -4 10 3 6 8 10 11 10 2 0 4 -4 4 -10z m110 0 c0 -5 -4 -10 -10 -10 -5 0 -10 5 -10 10 0 6 5 10 10 10 6 0 10 -4 10 -10z"/>
<path d="M2074 1872 c-18 -12 -23 -39 -11 -56 8 -11 33 -16 82 -18 54 -2 70 -6 70 -18 0 -12 -19 -16 -100 -18 -75 -2 -103 -6 -111 -18 -9 -12 -9 -42 0 -56 0 -1 141 -5 311 -8 l310 -5 3 -24 c2 -13 -2 -28 -10 -32 -7 -5 -140 -9 -295 -9 -156 0 -283 -2 -283 -4 0 -2 -7 -41 -16 -86 -8 -45 -13 -89 -10 -96 4 -12 59 -14 304 -14 164 0 301 2 304 5 3 3 -1 41 -9 84 l-13 79 30 30 c21 21 28 36 24 49 -15 42 -25 43 -336 43 -291 0 -298 0 -298 20 0 19 7 20 99 20 112 0 133 10 113 55 -11 23 -17 25 -83 25 -62 0 -70 2 -67 18 3 15 18 17 111 20 60 1 107 7 107 12 0 12 -209 13 -226 2z m510 -324 c4 -24 9 -58 12 -75 l6 -33 -285 0 -284 0 9 53 c4 28 11 62 13 75 l5 22 259 0 258 0 7 -42z"/>
<path d="M2080 1560 c0 -5 7 -10 15 -10 8 0 15 5 15 10 0 6 -7 10 -15 10 -8 0 -15 -4 -15 -10z"/>
<path d="M2130 1560 c0 -5 5 -10 10 -10 6 0 10 5 10 10 0 6 -4 10 -10 10 -5 0 -10 -4 -10 -10z"/>
<path d="M2170 1560 c0 -5 5 -10 10 -10 6 0 10 5 10 10 0 6 -4 10 -10 10 -5 0 -10 -4 -10 -10z"/>
<path d="M2220 1560 c0 -5 5 -10 10 -10 6 0 10 5 10 10 0 6 -4 10 -10 10 -5 0 -10 -4 -10 -10z"/>
<path d="M2260 1560 c0 -5 5 -10 10 -10 6 0 10 5 10 10 0 6 -4 10 -10 10 -5 0 -10 -4 -10 -10z"/>
<path d="M2310 1560 c0 -5 5 -10 10 -10 6 0 10 5 10 10 0 6 -4 10 -10 10 -5 0 -10 -4 -10 -10z"/>
<path d="M2350 1560 c0 -5 5 -10 10 -10 6 0 10 5 10 10 0 6 -4 10 -10 10 -5 0 -10 -4 -10 -10z"/>
<path d="M2400 1560 c0 -5 5 -10 10 -10 6 0 10 5 10 10 0 6 -4 10 -10 10 -5 0 -10 -4 -10 -10z"/>
<path d="M2440 1560 c0 -5 5 -10 10 -10 6 0 10 5 10 10 0 6 -4 10 -10 10 -5 0 -10 -4 -10 -10z"/>
<path d="M2490 1560 c0 -5 5 -10 10 -10 6 0 10 5 10 10 0 6 -4 10 -10 10 -5 0 -10 -4 -10 -10z"/>
<path d="M2530 1560 c0 -5 5 -10 10 -10 6 0 10 5 10 10 0 6 -4 10 -10 10 -5 0 -10 -4 -10 -10z"/>
<path d="M2080 1510 c0 -5 7 -10 15 -10 8 0 15 5 15 10 0 6 -7 10 -15 10 -8 0 -15 -4 -15 -10z"/>
<path d="M2130 1510 c0 -5 5 -10 10 -10 6 0 10 5 10 10 0 6 -4 10 -10 10 -5 0 -10 -4 -10 -10z"/>
<path d="M2170 1510 c0 -5 5 -10 10 -10 6 0 10 5 10 10 0 6 -4 10 -10 10 -5 0 -10 -4 -10 -10z"/>
<path d="M2220 1510 c0 -5 5 -10 10 -10 6 0 10 5 10 10 0 6 -4 10 -10 10 -5 0 -10 -4 -10 -10z"/>
<path d="M2260 1510 c0 -5 5 -10 10 -10 6 0 10 5 10 10 0 6 -4 10 -10 10 -5 0 -10 -4 -10 -10z"/>
<path d="M2310 1510 c0 -5 5 -10 10 -10 6 0 10 5 10 10 0 6 -4 10 -10 10 -5 0 -10 -4 -10 -10z"/>
<path d="M2350 1510 c0 -5 5 -10 10 -10 6 0 10 5 10 10 0 6 -4 10 -10 10 -5 0 -10 -4 -10 -10z"/>
<path d="M2400 1510 c0 -5 5 -10 10 -10 6 0 10 5 10 10 0 6 -4 10 -10 10 -5 0 -10 -4 -10 -10z"/>
<path d="M2440 1510 c0 -5 5 -10 10 -10 6 0 10 5 10 10 0 6 -4 10 -10 10 -5 0 -10 -4 -10 -10z"/>
<path d="M2490 1510 c0 -5 5 -10 10 -10 6 0 10 5 10 10 0 6 -4 10 -10 10 -5 0 -10 -4 -10 -10z"/>
<path d="M2530 1510 c0 -5 5 -10 10 -10 6 0 10 5 10 10 0 6 -4 10 -10 10 -5 0 -10 -4 -10 -10z"/>
<path d="M2080 1470 c0 -5 7 -10 15 -10 8 0 15 5 15 10 0 6 -7 10 -15 10 -8 0 -15 -4 -15 -10z"/>
<path d="M2130 1470 c0 -5 5 -10 10 -10 6 0 10 5 10 10 0 6 -4 10 -10 10 -5 0 -10 -4 -10 -10z"/>
<path d="M2170 1470 c0 -5 5 -10 10 -10 6 0 10 5 10 10 0 6 -4 10 -10 10 -5 0 -10 -4 -10 -10z"/>
<path d="M2220 1470 c0 -6 32 -10 75 -10 43 0 75 4 75 10 0 6 -32 10 -75 10 -43 0 -75 -4 -75 -10z"/>
<path d="M2400 1470 c0 -5 5 -10 10 -10 6 0 10 5 10 10 0 6 -4 10 -10 10 -5 0 -10 -4 -10 -10z"/>
<path d="M2440 1470 c0 -5 5 -10 10 -10 6 0 10 5 10 10 0 6 -4 10 -10 10 -5 0 -10 -4 -10 -10z"/>
<path d="M2490 1470 c0 -5 5 -10 10 -10 6 0 10 5 10 10 0 6 -4 10 -10 10 -5 0 -10 -4 -10 -10z"/>
<path d="M2530 1470 c0 -5 5 -10 10 -10 6 0 10 5 10 10 0 6 -4 10 -10 10 -5 0 -10 -4 -10 -10z"/>
<path d="M3283 1391 c-112 -8 -203 -17 -203 -21 0 -4 21 -13 48 -21 l47 -15 5 -143 5 -144 -50 -23 -50 -24 193 4 c106 2 195 6 198 9 3 2 4 38 2 78 l-3 74 -21 -60 -21 -60 -87 -3 -87 -3 3 53 c3 49 5 53 30 56 21 3 32 -4 52 -34 l25 -37 3 106 c2 58 0 104 -3 102 -3 -2 -14 -22 -24 -45 -15 -33 -23 -40 -47 -40 l-28 0 0 74 0 73 46 7 c106 14 112 12 142 -51 l27 -58 3 43 c2 23 2 59 0 80 l-3 37 -202 -14z"/>
<path d="M1327 1385 c-76 -7 -140 -15 -143 -18 -3 -3 14 -11 38 -19 l43 -15 6 -69 c4 -38 7 -106 8 -151 l1 -83 -37 -19 c-21 -11 -36 -21 -33 -21 3 -1 59 -3 125 -5 l120 -3 -47 21 -48 21 0 63 c0 60 1 63 24 63 19 0 31 -11 50 -42 l26 -43 -1 110 0 110 -22 -42 c-17 -35 -26 -43 -49 -43 l-28 0 0 70 c0 48 4 72 13 75 6 2 41 6 75 7 l64 3 28 -70 29 -70 0 93 1 92 -52 -1 c-29 -1 -115 -7 -191 -14z"/>
<path d="M2650 1318 c0 -88 13 -100 34 -33 16 52 19 55 51 55 19 0 36 -3 38 -8 3 -4 7 -67 8 -141 l3 -133 -60 -32 c-50 -26 -69 -30 -114 -28 l-55 4 -62 91 -63 91 48 25 c77 42 66 100 -26 130 -20 7 -106 14 -192 17 l-155 4 46 -21 46 -22 7 -131 c4 -72 3 -132 -1 -133 -4 -2 -26 -14 -47 -27 l-40 -24 127 0 c70 1 127 4 127 9 0 4 -15 13 -34 20 -38 14 -43 24 -42 89 1 44 1 45 38 48 l36 3 57 -106 57 -107 -38 -39 c-45 -46 -55 -49 136 32 l125 53 128 -1 c70 0 127 1 127 3 0 2 -23 13 -51 26 l-52 22 7 89 c3 50 6 112 6 139 l0 49 42 -3 c42 -3 43 -4 59 -58 19 -61 22 -56 34 46 l5 51 -121 6 c-67 4 -148 7 -181 7 l-58 0 0 -62z m-210 -22 c61 -28 9 -82 -86 -90 l-61 -6 -7 38 c-10 60 -7 70 17 75 32 6 108 -4 137 -17z"/>
<path d="M1790 1336 c-97 -28 -135 -72 -134 -158 1 -106 72 -163 204 -163 124 1 199 56 207 154 11 122 -133 209 -277 167z m151 -65 c16 -16 29 -35 30 -43 0 -7 2 -24 4 -38 9 -69 -38 -129 -109 -137 -42 -5 -48 -3 -81 30 -32 32 -35 40 -35 92 0 51 3 60 34 91 29 29 41 34 81 34 38 0 52 -5 76 -29z"/>
</g>
</svg>